<?xml version="1.0" encoding="UTF-8" standalone="no"?>
<!DOCTYPE svg PUBLIC "-//W3C//DTD SVG 1.1//EN" "http://www.w3.org/Graphics/SVG/1.1/DTD/svg11.dtd">
<!-- Created with Vectornator (http://vectornator.io/) -->
<svg height="50.0pt" stroke-miterlimit="10" style="fill-rule:nonzero;clip-rule:evenodd;stroke-linecap:round;stroke-linejoin:round;" version="1.1" viewBox="0 0 200 50" width="200.0pt" xml:space="preserve" xmlns="http://www.w3.org/2000/svg" xmlns:xlink="http://www.w3.org/1999/xlink">
<defs/>
<g id="Capa-1">
<path d="M9.77595 21.0189C9.6823 21.0731 9.62463 21.1731 9.62463 21.2813L9.62463 34.6242L9.62463 36.3766C9.62463 36.4456 9.64819 36.5126 9.69142 36.5664L12.9575 40.633C13.015 40.7047 13.102 40.7464 13.1939 40.7464L24.8565 40.7464L36.8922 40.7464C36.9946 40.7464 37.09 40.6947 37.146 40.6091L39.793 36.5588C39.8252 36.5095 39.8423 36.4519 39.8423 36.393L39.8423 17.9012C39.8423 17.8198 39.8096 17.7418 39.7515 17.6848L35.9269 13.9329C35.8567 13.864 35.7575 13.8335 35.6608 13.8509L20.4096 16.5997C20.3944 16.6024 20.3795 16.6063 20.3649 16.6113L13.0764 19.1157C13.0578 19.1221 13.04 19.1302 13.023 19.1401L9.77595 21.0189Z" fill="#006961" fill-rule="nonzero" opacity="1" stroke="none"/>
<path d="M17.5943 32.0512L18.6664 34.4591L20.1345 36.5578L22.8693 37.9237L25.7026 37.9237L29.1368 36.5578L30.8294 33.8545L30.8294 32.0512L17.5943 32.0512Z" fill="#ffffff" fill-rule="nonzero" opacity="1" stroke="none"/>
<path d="M19.0619 42.9327L21.8807 45.7496L27.237 45.7496L30.1134 42.9327L19.0619 42.9327Z" fill="#006961" fill-rule="nonzero" opacity="1" stroke="none"/>
<path d="M5.29229 23.7286L5.29229 30.9291L8.1179 33.1146L8.1179 22.5706L8.1179 33.1146L8.1179 22.5706L5.29229 23.7286Z" fill="#006961" fill-rule="nonzero" opacity="1" stroke="none"/>
<path d="M44.5589 23.7286L44.5589 30.9291L41.7333 33.1146L41.7333 22.5706L41.7333 33.1146L41.7333 22.5706L44.5589 23.7286Z" fill="#006961" fill-rule="nonzero" opacity="1" stroke="none"/>
<path d="M17.3196 5.83328L11.5441 9.57252L8.08345 13.031L6.70509 14.9411L6.70509 16.6864L8.08345 18.3546L10.0604 19.1253L15.1385 16.6864L20.3739 14.9411L24.605 13.8326L27.6566 13.031L31.291 12.4793L35.9491 12.4793L37.0563 9.57252L37.0563 6.75402L33.6933 2.94361L27.6566 2.94361L20.3739 4.54732L18.0373 2.18423L16.2019 3.65058L17.3196 5.83328Z" fill="#006961" fill-rule="nonzero" opacity="1" stroke="none"/>
<path d="M18.0352 21.7221C17.1387 21.3333 16.2 21.9948 15.7452 22.8597L15.2913 23.7282L15.0541 24.9706L15.0541 27.8987L16.5947 29.3311L17.9236 29.3311L20.1345 27.8987L20.1345 23.4053L18.9928 22.1379L18.0352 21.7221Z" fill="#ffffff" fill-rule="nonzero" opacity="1" stroke="none"/>
<path d="M31.2703 21.7221C30.3738 21.3333 29.4351 21.9948 28.9803 22.8597L28.5264 23.7282L28.2892 24.9706L28.2892 27.8987L29.8298 29.3311L31.1587 29.3311L33.3696 27.8987L33.3696 23.4053L32.2279 22.1379L31.2703 21.7221Z" fill="#ffffff" fill-rule="nonzero" opacity="1" stroke="none"/>
<text fill="#006961" font-family="Impact" font-size="36" opacity="1" stroke="none" text-anchor="start" transform="matrix(1 0 0 1 49.9964 4.98744)" x="0" y="0">
<tspan textLength="128.338" x="0" y="36.3164"><![CDATA[BotRural]]></tspan>
</text>
</g>
</svg>
